<?xml version="1.0" encoding="UTF-8" standalone="no"?>
<svg width="180px" height="18px" viewBox="0 0 180 18" version="1.1" xmlns="http://www.w3.org/2000/svg" xmlns:xlink="http://www.w3.org/1999/xlink">
    <!-- Generator: Sketch 43.1 (39012) - http://www.bohemiancoding.com/sketch -->
    <title>logo-proof-reason</title>
    <desc>Created with Sketch.</desc>
    <defs></defs>
    <g id="Page-1" stroke="none" stroke-width="1" fill="none" fill-rule="evenodd">
        <g id="logo-proof-reason" fill-rule="nonzero" fill="#FFFFFF">
            <path d="M86.0869565,4.2573913 C86.0869565,4.13217391 86.0869565,4.0226087 86.133913,3.91304348 C86.1418886,3.79839941 86.1418886,3.68333972 86.133913,3.56869565 C86.1248213,3.30563779 86.093404,3.04382734 86.04,2.78608696 C85.946896,2.40191628 85.755401,2.04859452 85.4843478,1.76086957 C85.2478421,1.49448117 84.9495437,1.2902408 84.6156522,1.16608696 C84.2750005,1.04017035 83.9144788,0.976548874 83.5513043,0.97826087 C82.9859553,0.965291756 82.4280219,1.10883771 81.9391304,1.39304348 C81.4882756,1.7084446 81.139955,2.1492878 80.9373913,2.66086957 C80.7236694,3.15549522 80.6093251,3.68732903 80.6008696,4.22608696 C80.6131895,4.65773699 80.7088585,5.08293263 80.8826087,5.47826087 C81.0395564,5.83208295 81.2254031,6.17236557 81.4382609,6.49565217 L82.2913043,6.39391304 L82.9095652,6.34695652 L83.426087,6.34695652 L84.6313043,6.34695652 L84.8191304,6.40956522 C84.88133,6.43110232 84.9203235,6.49284193 84.9130435,6.55826087 C84.9089263,6.72003934 84.84797,6.87520098 84.7408696,6.99652174 L84.4513043,7.37217391 L84.1773913,7.70086957 C84.0822681,7.81967853 83.9382842,7.88879079 83.786087,7.88869565 L83.5982609,7.88869565 L83.3947826,7.88869565 C83.0670959,7.85850867 82.7440456,7.79022163 82.4321739,7.68521739 C82.1817391,7.59130435 81.9782609,7.50521739 81.813913,7.43478261 C81.6379625,7.46809486 81.4602976,7.49160933 81.2817391,7.50521739 C81.093913,7.50521739 80.9217391,7.54434783 80.7495652,7.57565217 C80.603779,7.60576676 80.4600198,7.64497379 80.3191304,7.69304348 L79.646087,7.92 C79.3956522,8.01391304 79.1217391,8.13130435 78.8634783,8.26434783 C78.5738885,8.4026309 78.2963958,8.56493791 78.033913,8.74956522 C77.7343255,8.94089896 77.456202,9.16392252 77.2043478,9.41478261 C76.9331586,9.64129665 76.686581,9.89574369 76.4686957,10.173913 C76.2693163,10.4787727 76.1089358,10.8074213 75.9913043,11.1521739 C75.8766507,11.4979862 75.8185131,11.8600249 75.8191304,12.2243478 C75.8131213,12.6339717 75.8875721,13.040792 76.0382609,13.4217391 C76.1998747,13.7876899 76.4221304,14.1237193 76.6956522,14.4156522 C76.8711421,14.621069 77.0678913,14.8073249 77.2826087,14.9713043 C77.5470979,15.1721486 77.8332249,15.3427749 78.1356522,15.48 C78.503856,15.6460601 78.8898416,15.7694705 79.286087,15.8478261 C79.7834844,15.9458891 80.2895688,15.9930887 80.7965217,15.9886957 L81.3130435,15.9886957 C81.5780087,15.9786753 81.8407881,15.9366306 82.0956522,15.8634783 L82.7608696,15.6443478 C83.0901398,15.525908 83.405139,15.3710334 83.7,15.1826087 C84.0611859,14.9552116 84.399311,14.693099 84.7095652,14.4 C85.0699065,14.0678093 85.3738683,13.6792668 85.6095652,13.2495652 C85.7601447,12.9563422 85.8832779,12.649819 85.9773913,12.333913 C86.0556522,12.0521739 86.126087,11.7391304 86.1808696,11.3869565 L84.2478261,11.3165217 L83.3713043,11.3165217 L82.4713043,11.3165217 L81.4617391,11.3165217 C81.2560174,11.299171 81.0492,11.299171 80.8434783,11.3165217 C80.6763406,11.3391072 80.5114074,11.375759 80.3504348,11.426087 C80.1886957,11.4834783 79.9852174,11.5643478 79.74,11.6686957 C79.74,11.7469565 79.74,11.8252174 79.7947826,11.8956522 C79.8137295,11.966013 79.8399582,12.0342075 79.8730435,12.0991304 C79.9813777,12.2477929 80.1235617,12.3685151 80.2878261,12.4513043 C80.5286031,12.5783423 80.7983507,12.6403842 81.0704348,12.6313043 C81.1835448,12.6387815 81.2966893,12.6172302 81.3991304,12.5686957 C81.4617391,12.5686957 81.5008696,12.4356522 81.5165217,12.2791304 L81.8843478,12.2791304 C81.8789931,12.3834096 81.8789931,12.4878948 81.8843478,12.5921739 C81.9180997,12.7547888 81.9180997,12.9226025 81.8843478,13.0852174 C81.8045751,13.325713 81.6676093,13.5432469 81.4852174,13.7191304 C81.2002232,13.977908 80.819941,14.1056147 80.4365217,14.0713043 C79.9679224,14.0868934 79.5170135,13.8915953 79.2078261,13.5391304 C79.0956204,13.4067848 79.0129132,13.2520424 78.9652174,13.0852174 C78.9216735,12.9484353 78.8979542,12.8061195 78.8947826,12.6626087 C78.8890468,12.3730675 78.9591977,12.0870679 79.0982609,11.8330435 C79.2382348,11.5868999 79.3924082,11.349107 79.56,11.1208696 C79.7805969,10.8548109 80.0241419,10.6086471 80.2878261,10.3852174 C80.5488035,10.1625514 80.8383122,9.97568665 81.1486957,9.82956522 C81.4270205,9.69353078 81.7215764,9.59359218 82.0252174,9.53217391 C82.36138,9.46909945 82.7011841,9.42727739 83.0426087,9.40695652 L84.3104348,9.40695652 L85.9304348,9.45391304 L86.6426087,9.45391304 C87.2843478,9.50086957 87.9417391,9.51652174 88.6226087,9.51652174 L89.5382609,9.51652174 C89.6294267,9.52363396 89.7210081,9.52363396 89.8121739,9.51652174 C89.9056983,9.50272713 89.9975093,9.47911859 90.086087,9.44608696 C90.208895,9.37848418 90.2971194,9.26180029 90.3286957,9.12521739 C90.3720667,9.00693259 90.3984168,8.88308702 90.4069565,8.7573913 C90.3998197,8.57695271 90.3600468,8.39930043 90.2895652,8.23304348 C90.221498,8.05593698 90.1235561,7.89181823 90,7.74782609 C89.8872239,7.62314019 89.7550962,7.517438 89.6086957,7.43478261 C89.482693,7.36618344 89.3486103,7.31360199 89.2095652,7.27826087 C89.107538,7.24982981 89.0024004,7.23405917 88.8965217,7.23130435 C88.7797756,7.24387607 88.6644798,7.2674593 88.5521739,7.30173913 C88.4433816,7.34409268 88.3427598,7.40499533 88.2547826,7.48173913 L88.0043478,7.23130435 C88.2495267,6.97965266 88.5109582,6.74436435 88.7869565,6.52695652 C89.0836546,6.30926326 89.4443071,6.19638728 89.8121739,6.20608696 C89.9266951,6.19513038 90.0420006,6.19513038 90.1565217,6.20608696 L90.36,6.26086957 C90.6810464,6.36411628 90.957172,6.57397171 91.1426087,6.85565217 C91.3227612,7.14393535 91.415209,7.47837901 91.4086957,7.81826087 C91.39926,8.14197379 91.3275166,8.46083354 91.1973913,8.7573913 C91.0577482,9.09865823 90.8819635,9.42399105 90.6730435,9.72782609 C90.4664157,10.0339993 90.2247833,10.3150283 89.9530435,10.5652174 C89.7188297,10.7832212 89.4554377,10.9675956 89.1704348,11.1130435 C88.9956878,11.2015324 88.808223,11.2622604 88.6147826,11.2930435 C88.4259974,11.3246557 88.2348915,11.340363 88.0434783,11.34 C87.933913,11.6426087 87.7852174,12.0286957 87.5973913,12.4982609 C87.3427633,13.0613975 87.0137421,13.5878314 86.6191304,14.0634783 C86.0947549,14.7614655 85.4476823,15.3581514 84.7095652,15.8243478 C84.0833364,16.2143084 83.4135469,16.5295034 82.713913,16.7634783 C82.1321633,16.9573704 81.531362,17.0885497 80.9217391,17.1547826 C80.373913,17.2095652 79.9434783,17.2330435 79.6382609,17.2330435 C78.6445767,17.2580192 77.6548555,17.0988147 76.7191304,16.7634783 C76.034457,16.5123013 75.4027466,16.1353985 74.8565217,15.6521739 C74.393028,15.2149037 74.0322029,14.680348 73.8,14.0869565 C73.5949646,13.5683688 73.4862289,13.0167345 73.4791304,12.4591304 C73.4797574,12.0187953 73.5456922,11.5809882 73.6747826,11.16 C73.8037715,10.7447166 73.9852377,10.3475949 74.2147826,9.97826087 C74.4392134,9.60776721 74.7014878,9.26156502 74.9973913,8.94521739 C75.3056259,8.63194013 75.6497433,8.35612085 76.0226087,8.12347826 C76.4368842,7.83934562 76.8835033,7.60552736 77.3530435,7.42695652 C77.7764321,7.26010239 78.2104297,7.12153691 78.6521739,7.01217391 C79.0134535,6.92066192 79.3791403,6.84752458 79.7478261,6.79304348 L80.46,6.67565217 L80.1234783,6.44869565 C79.9546924,6.32445769 79.7927188,6.19122134 79.6382609,6.04956522 C79.4510597,5.87608848 79.2783136,5.68763815 79.1217391,5.48608696 C78.9457472,5.25996764 78.7985326,5.01285735 78.6834783,4.75043478 C78.6834783,4.68 78.5973913,4.53130435 78.5347826,4.32782609 C78.4623006,4.10025106 78.4279244,3.86226233 78.4330435,3.62347826 C78.4437588,3.21244659 78.5453182,2.80888173 78.7304348,2.44173913 C78.9533967,1.99054882 79.2679034,1.59075218 79.653913,1.26782609 C80.1173498,0.880048999 80.6478221,0.580332124 81.2191304,0.383478261 C81.9364889,0.123612866 82.6944403,-0.0062459396 83.4573913,8.42858769e-16 C84.0948195,0.00339878161 84.7299411,0.0768839233 85.3513043,0.219130435 C85.9674308,0.353856853 86.5661103,0.55866826 87.1356522,0.829565217 L87.5034783,1.04086957 L87.8713043,1.26782609 C87.7617391,1.58869565 87.6834783,1.8626087 87.6208696,2.0973913 C87.5582609,2.33217391 87.5034783,2.54347826 87.4643478,2.75478261 C87.4252174,2.96608696 87.3704348,3.1773913 87.3234783,3.41217391 C87.2765217,3.64695652 87.2295652,3.92869565 87.1826087,4.2573913 L86.0869565,4.2573913 Z" id="Shape"></path>
            <path d="M0,12.8269565 L1.28347826,12.5217391 L1.28347826,4.29652174 L0.0469565217,3.99130435 L0.0469565217,3.13043478 L4.87565217,3.13043478 C7.81826087,3.13043478 9.18,4.23391304 9.18,6.12 C9.18,8.8826087 6.16695652,9.86869565 3.63913043,9.80608696 L3.63913043,12.5217391 L5.31391304,12.7956522 L5.31391304,13.6721739 L0,13.6721739 L0,12.8269565 Z M6.55826087,6.26086957 C6.55826087,4.89913043 5.77565217,4.28086957 4.21043478,4.28086957 L3.63913043,4.28086957 L3.63913043,8.60869565 C5.1573913,8.73391304 6.55826087,7.90434783 6.55826087,6.26086957 Z" id="Shape"></path>
            <path d="M19.9721739,12.7173913 C19.2011843,11.5416897 18.6176928,10.2532558 18.2426087,8.89826087 L16.9356522,8.89826087 L16.9356522,12.5217391 L18.1565217,12.7956522 L18.1565217,13.6721739 L13.3043478,13.6721739 L13.3043478,12.8269565 L14.5878261,12.5217391 L14.5878261,4.29652174 L13.3904348,3.99130435 L13.3904348,3.13043478 L18.4069565,3.13043478 C20.8878261,3.13043478 22.4530435,3.86608696 22.4530435,5.75217391 C22.3608619,7.0311067 21.4791427,8.11605909 20.246087,8.46782609 C21.7173913,11.066087 22.593913,12.6313043 24.0652174,12.9052174 L24.0652174,13.6878261 C22.0695652,14.0008696 20.6843478,13.7034783 19.9721739,12.7173913 Z M16.9356522,7.82608696 L17.4678261,7.82608696 C18.8765217,7.82608696 19.9330435,7.32521739 19.9330435,5.86956522 C19.9330435,4.67217391 18.9391304,4.2573913 17.5852174,4.2573913 L16.9434783,4.2573913 L16.9356522,7.82608696 Z" id="Shape"></path>
            <path d="M27.5478261,8.20173913 C27.5478261,4.6173913 30.0521739,2.79391304 33.3234783,2.79391304 C36.5947826,2.79391304 38.8017391,4.58608696 38.8017391,8.20173913 C38.8017391,11.8173913 36.3913043,13.9773913 33.0965217,13.9773913 C29.8017391,13.9773913 27.5478261,11.8643478 27.5478261,8.20173913 Z M36,8.31913043 C36,5.35304348 34.7947826,3.91304348 33.1591304,3.91304348 C31.5234783,3.91304348 30.333913,5.36086957 30.333913,8.33478261 C30.333913,11.3086957 31.5313043,12.8895652 33.2295652,12.8895652 C34.9278261,12.8895652 36,11.246087 36,8.31913043 Z" id="Shape"></path>
            <path d="M43.0434783,8.20173913 C43.0434783,4.6173913 45.5556522,2.79391304 48.8191304,2.79391304 C52.0826087,2.79391304 54.2973913,4.58608696 54.2973913,8.20173913 C54.2973913,11.8173913 51.8243478,13.9773913 48.5217391,13.9773913 C45.2191304,13.9773913 43.0434783,11.8643478 43.0434783,8.20173913 Z M51.5347826,8.31913043 C51.5034783,5.35304348 50.2591304,3.91304348 48.6234783,3.91304348 C46.9878261,3.91304348 45.7904348,5.36086957 45.7904348,8.33478261 C45.7904348,11.3086957 46.9878261,12.8895652 48.693913,12.8895652 C50.4,12.8895652 51.5034783,11.246087 51.5034783,8.31913043 L51.5347826,8.31913043 Z" id="Shape"></path>
            <polygon id="Shape" points="58.6173913 12.8269565 59.8852174 12.5765217 59.8852174 4.29652174 58.6956522 3.99130435 58.6956522 3.13043478 67.0226087 3.13043478 67.0226087 5.90086957 65.8252174 5.90086957 65.3713043 4.26521739 62.2408696 4.26521739 62.2408696 7.88086957 64.5182609 7.88086957 64.8391304 6.7773913 65.8330435 6.7773913 65.8330435 10.4165217 64.8547826 10.4165217 64.533913 9.10173913 62.2565217 9.10173913 62.2565217 12.5765217 64.0486957 12.8269565 64.0486957 13.7034783 58.6173913 13.7034783"></polygon>
            <path d="M104.697391,12.7173913 C103.924827,11.5425562 103.34122,10.2538675 102.967826,8.89826087 L101.653043,8.89826087 L101.653043,12.5217391 L102.873913,12.7956522 L102.873913,13.6721739 L98.0373913,13.6721739 L98.0373913,12.8269565 L99.3130435,12.5217391 L99.3130435,4.29652174 L98.1156522,3.99913043 L98.1156522,3.13043478 L103.132174,3.13043478 C105.613043,3.13043478 107.178261,3.86608696 107.178261,5.75217391 C107.086079,7.0311067 106.20436,8.11605909 104.971304,8.46782609 C106.442609,11.066087 107.31913,12.6313043 108.790435,12.9052174 L108.790435,13.6878261 C106.786957,14.0008696 105.409565,13.7034783 104.697391,12.7173913 Z M101.653043,7.82608696 L102.185217,7.82608696 C103.593913,7.82608696 104.650435,7.32521739 104.650435,5.86956522 C104.650435,4.67217391 103.664348,4.2573913 102.302609,4.2573913 L101.66087,4.2573913 L101.653043,7.82608696 Z" id="Shape"></path>
            <polygon id="Shape" points="112.633043 12.8269565 113.90087 12.5295652 113.90087 4.29652174 112.695652 3.99130435 112.695652 3.13043478 121.030435 3.13043478 121.030435 5.79130435 119.856522 5.79130435 119.371304 4.27304348 116.287826 4.27304348 116.287826 7.63826087 118.565217 7.63826087 118.909565 6.58173913 119.88 6.58173913 119.88 9.89217391 118.909565 9.89217391 118.565217 8.85913043 116.287826 8.85913043 116.287826 12.5217391 119.73913 12.5217391 120.177391 10.8626087 121.374783 10.8626087 121.374783 13.7191304 112.633043 13.7191304"></polygon>
            <path d="M125.170435,12.8269565 L126.18,12.6 L130.046087,3.00521739 L132.002609,3.00521739 L136.095652,12.6469565 L137.128696,12.8269565 L137.128696,13.7034783 L132.112174,13.7034783 L132.112174,12.8269565 L133.38,12.6469565 L132.526957,10.4791304 L128.613913,10.4791304 L127.831304,12.6 L129.122609,12.8269565 L129.122609,13.7034783 L125.115652,13.7034783 L125.170435,12.8269565 Z M129.036522,9.39130435 L132.12,9.39130435 L130.554783,5.34521739 L129.036522,9.39130435 Z" id="Shape"></path>
            <path d="M140.713043,13.1556522 L140.994783,10.346087 L142.301739,10.346087 L142.646087,12.1382609 C143.162886,12.5457462 143.803658,12.76394 144.461739,12.7565217 C145.471304,12.7565217 146.441739,12.3182609 146.441739,11.4182609 C146.441739,10.5182609 145.173913,9.92347826 143.796522,9.28173913 C142.278261,8.60869565 140.869565,7.60695652 140.869565,5.99478261 C140.869565,4.01478261 142.685217,2.86434783 145.056522,2.86434783 C146.255888,2.86842375 147.443371,3.10220123 148.554783,3.55304348 L148.343478,6.12782609 L146.966087,6.12782609 L146.668696,4.49217391 C146.1786,4.16389815 145.599313,3.9944841 145.009565,4.00695652 C144.062609,4.00695652 143.233043,4.35130435 143.233043,5.11043478 C143.233043,6.12 144.406957,6.67565217 145.745217,7.29391304 C147.310435,7.9826087 148.946087,8.92956522 148.946087,10.5104348 C148.946087,12.6078261 146.91913,13.8678261 144.532174,13.8678261 C143.222272,13.9138548 141.918318,13.6706994 140.713043,13.1556522 L140.713043,13.1556522 Z" id="Shape"></path>
            <path d="M152.913913,8.20173913 C152.913913,4.6173913 155.418261,2.79391304 158.689565,2.79391304 C161.96087,2.79391304 164.167826,4.58608696 164.167826,8.20173913 C164.167826,11.8173913 161.749565,13.9773913 158.462609,13.9773913 C155.175652,13.9773913 152.913913,11.8643478 152.913913,8.20173913 Z M161.405217,8.31913043 C161.405217,5.35304348 160.16087,3.8973913 158.533043,3.8973913 C156.905217,3.8973913 155.73913,5.35304348 155.73913,8.31913043 C155.73913,11.2852174 156.936522,12.873913 158.634783,12.873913 C160.333043,12.873913 161.405217,11.246087 161.405217,8.31913043 L161.405217,8.31913043 Z" id="Shape"></path>
            <path d="M167.72087,12.7878261 L168.894783,12.4434783 C169.03355,11.1440535 169.078014,9.83628403 169.027826,8.53043478 L169.027826,4.52347826 L167.791304,3.99130435 L167.791304,3.13043478 L170.248696,3.13043478 C171.031304,3.13043478 171.281739,3.13043478 171.743478,3.73304348 L176.736522,9.82956522 L176.736522,7.40347826 C176.765446,6.39781689 176.728846,5.39133929 176.626957,4.39043478 L175.155652,4.04608696 L175.155652,3.13043478 L179.436522,3.13043478 L179.436522,4.03826087 L178.215652,4.3826087 C178.110299,5.38328172 178.071083,6.3898156 178.098261,7.39565217 L178.098261,13.773913 L176.76,13.773913 L170.405217,5.99478261 L170.405217,8.53043478 C170.354453,9.83647036 170.401541,11.1444739 170.546087,12.4434783 L171.923478,12.7878261 L171.923478,13.7034783 L167.713043,13.7034783 L167.72087,12.7878261 Z" id="Shape"></path>
        </g>
    </g>
</svg>